<svg xmlns="http://www.w3.org/2000/svg" width="640" height="300" font-family="sans-serif" font-size="11"><rect width="100%" height="100%" fill="#fff"/><text x="40" y="18">Futuros combinados RTH (replicación) — placebo emparejado por hora (F0-1)</text><line x1="40" x2="600" y1="40.0" y2="40.0" stroke="#eee"/><text x="36" y="44.0" text-anchor="end">1</text><line x1="40" x2="600" y1="135.6" y2="135.6" stroke="#eee"/><text x="36" y="139.6" text-anchor="end">0.1</text><line x1="40" x2="600" y1="231.2" y2="231.2" stroke="#eee"/><text x="36" y="235.2" text-anchor="end">0.01</text><text x="40.0" y="274" text-anchor="middle">0 W</text><text x="226.7" y="274" text-anchor="middle">1 W</text><text x="413.3" y="274" text-anchor="middle">2 W</text><text x="600.0" y="274" text-anchor="middle">3 W</text><polyline fill="none" stroke="#999" stroke-dasharray="4 3" points="40.0,40.0 49.3,44.0 58.7,47.6 68.0,50.9 77.3,54.0 86.7,56.8 96.0,59.5 105.3,62.0 114.7,64.4 124.0,66.7 133.3,68.8 142.7,70.8 152.0,72.7 161.3,74.6 170.7,76.4 180.0,78.0 189.3,79.7 198.7,81.2 208.0,82.8 217.3,84.2 226.7,85.6 236.0,87.0 245.3,88.3 254.7,89.6 264.0,90.8 273.3,92.0 282.7,93.2 292.0,94.3 301.3,95.4 310.7,96.5 320.0,97.6 329.3,98.6 338.7,99.6 348.0,100.6 357.3,101.5 366.7,102.5 376.0,103.4 385.3,104.3 394.7,105.1 404.0,106.0 413.3,106.8 422.7,107.7 432.0,108.5 441.3,109.2 450.7,110.0 460.0,110.8 469.3,111.5 478.7,112.3 488.0,113.0 497.3,113.7 506.7,114.4 516.0,115.1 525.3,115.8 534.7,116.4 544.0,117.1 553.3,117.7 562.7,118.4 572.0,119.0 581.3,119.6 590.7,120.2 600.0,120.8"/><polyline fill="none" stroke="#2563eb" stroke-width="1.4" points="40.0,40.0 49.3,44.4 58.7,46.5 68.0,49.3 77.3,53.6 86.7,57.8 96.0,62.3 105.3,67.2 114.7,72.4 124.0,76.1 133.3,80.7 142.7,86.3 152.0,88.6 161.3,91.0 170.7,94.3 180.0,99.2 189.3,101.6 198.7,104.9 208.0,111.4 217.3,116.8 226.7,121.7 236.0,125.8 245.3,130.3 254.7,132.0 264.0,133.7 273.3,135.4 282.7,135.4 292.0,135.4 301.3,143.4 310.7,143.4 320.0,148.0 329.3,148.0 338.7,150.5 348.0,153.2 357.3,162.4 366.7,166.1 376.0,170.0 385.3,184.8 394.7,184.8 404.0,184.8 413.3,198.8 422.7,198.8 432.0,198.8 441.3,208.1 450.7,208.1 460.0,220.0 469.3,236.8 478.7,260.0 488.0,260.0 497.3,260.0 506.7,260.0 516.0,260.0 525.3,260.0 534.7,260.0 544.0,260.0 553.3,260.0 562.7,260.0 572.0,260.0 581.3,260.0 590.7,260.0 600.0,260.0"/><polyline fill="none" stroke="#2563eb" stroke-dasharray="2 2" stroke-width="1.4" points="40.0,40.0 49.3,44.8 58.7,49.3 68.0,53.1 77.3,57.6 86.7,62.6 96.0,65.5 105.3,69.3 114.7,74.8 124.0,79.2 133.3,83.7 142.7,87.5 152.0,91.0 161.3,93.6 170.7,96.3 180.0,102.4 189.3,105.8 198.7,109.4 208.0,114.6 217.3,121.7 226.7,125.8 236.0,130.3 245.3,130.3 254.7,133.7 264.0,137.3 273.3,143.4 282.7,145.6 292.0,145.6 301.3,145.6 310.7,148.0 320.0,150.5 329.3,153.2 338.7,156.0 348.0,156.0 357.3,159.1 366.7,162.4 376.0,162.4 385.3,162.4 394.7,162.4 404.0,162.4 413.3,166.1 422.7,166.1 432.0,170.0 441.3,174.4 450.7,174.4 460.0,179.3 469.3,184.8 478.7,184.8 488.0,184.8 497.3,184.8 506.7,184.8 516.0,184.8 525.3,191.2 534.7,191.2 544.0,191.2 553.3,191.2 562.7,191.2 572.0,191.2 581.3,191.2 590.7,191.2 600.0,191.2"/><text x="600" y="34" text-anchor="end" fill="#2563eb">5m_12_3 (n=229) — continuo: real, punteado: placebo</text><polyline fill="none" stroke="#dc2626" stroke-width="1.4" points="40.0,40.0 49.3,46.4 58.7,47.7 68.0,51.1 77.3,55.5 86.7,58.8 96.0,64.2 105.3,68.2 114.7,71.6 124.0,72.7 133.3,77.8 142.7,83.5 152.0,85.1 161.3,85.1 170.7,88.4 180.0,90.2 189.3,92.0 198.7,96.0 208.0,102.7 217.3,110.8 226.7,117.2 236.0,124.8 245.3,134.0 254.7,134.0 264.0,139.6 273.3,139.6 282.7,146.0 292.0,146.0 301.3,162.8 310.7,162.8 320.0,162.8 329.3,162.8 338.7,162.8 348.0,162.8 357.3,174.7 366.7,174.7 376.0,191.6 385.3,220.4 394.7,220.4 404.0,220.4 413.3,220.4 422.7,220.4 432.0,220.4 441.3,260.0 450.7,260.0 460.0,260.0 469.3,260.0 478.7,260.0 488.0,260.0 497.3,260.0 506.7,260.0 516.0,260.0 525.3,260.0 534.7,260.0 544.0,260.0 553.3,260.0 562.7,260.0 572.0,260.0 581.3,260.0 590.7,260.0 600.0,260.0"/><polyline fill="none" stroke="#dc2626" stroke-dasharray="2 2" stroke-width="1.4" points="40.0,40.0 49.3,43.4 58.7,49.0 68.0,57.9 77.3,63.2 86.7,64.2 96.0,70.4 105.3,77.8 114.7,85.1 124.0,92.0 133.3,102.7 142.7,107.9 152.0,110.8 161.3,110.8 170.7,110.8 180.0,120.8 189.3,120.8 198.7,124.8 208.0,124.8 217.3,134.0 226.7,146.0 236.0,146.0 245.3,153.5 254.7,162.8 264.0,162.8 273.3,162.8 282.7,162.8 292.0,162.8 301.3,162.8 310.7,174.7 320.0,174.7 329.3,191.6 338.7,191.6 348.0,191.6 357.3,191.6 366.7,191.6 376.0,191.6 385.3,191.6 394.7,220.4 404.0,220.4 413.3,220.4 422.7,220.4 432.0,220.4 441.3,220.4 450.7,220.4 460.0,220.4 469.3,260.0 478.7,260.0 488.0,260.0 497.3,260.0 506.7,260.0 516.0,260.0 525.3,260.0 534.7,260.0 544.0,260.0 553.3,260.0 562.7,260.0 572.0,260.0 581.3,260.0 590.7,260.0 600.0,260.0"/><text x="600" y="48" text-anchor="end" fill="#dc2626">5m_12_4 (n=77) — continuo: real, punteado: placebo</text><polyline fill="none" stroke="#16a34a" stroke-width="1.4" points="40.0,40.0 49.3,45.5 58.7,48.2 68.0,51.9 77.3,57.2 86.7,58.3 96.0,67.3 105.3,70.3 114.7,75.2 124.0,78.8 133.3,82.8 142.7,87.1 152.0,94.7 161.3,100.6 170.7,107.6 180.0,111.5 189.3,115.9 198.7,120.8 208.0,120.8 217.3,120.8 226.7,120.8 236.0,126.3 245.3,140.3 254.7,140.3 264.0,140.3 273.3,140.3 282.7,140.3 292.0,149.6 301.3,161.5 310.7,161.5 320.0,161.5 329.3,161.5 338.7,161.5 348.0,161.5 357.3,161.5 366.7,161.5 376.0,178.4 385.3,207.1 394.7,207.1 404.0,207.1 413.3,207.1 422.7,207.1 432.0,207.1 441.3,260.0 450.7,260.0 460.0,260.0 469.3,260.0 478.7,260.0 488.0,260.0 497.3,260.0 506.7,260.0 516.0,260.0 525.3,260.0 534.7,260.0 544.0,260.0 553.3,260.0 562.7,260.0 572.0,260.0 581.3,260.0 590.7,260.0 600.0,260.0"/><polyline fill="none" stroke="#16a34a" stroke-dasharray="2 2" stroke-width="1.4" points="40.0,40.0 49.3,46.4 58.7,49.1 68.0,57.2 77.3,65.9 86.7,71.9 96.0,73.5 105.3,75.2 114.7,82.8 124.0,89.5 133.3,97.6 142.7,107.6 152.0,111.5 161.3,111.5 170.7,115.9 180.0,120.8 189.3,126.3 198.7,140.3 208.0,140.3 217.3,140.3 226.7,140.3 236.0,140.3 245.3,149.6 254.7,161.5 264.0,178.4 273.3,178.4 282.7,178.4 292.0,178.4 301.3,178.4 310.7,178.4 320.0,178.4 329.3,178.4 338.7,178.4 348.0,178.4 357.3,207.1 366.7,207.1 376.0,207.1 385.3,207.1 394.7,207.1 404.0,207.1 413.3,207.1 422.7,207.1 432.0,207.1 441.3,207.1 450.7,207.1 460.0,207.1 469.3,207.1 478.7,207.1 488.0,207.1 497.3,207.1 506.7,260.0 516.0,260.0 525.3,260.0 534.7,260.0 544.0,260.0 553.3,260.0 562.7,260.0 572.0,260.0 581.3,260.0 590.7,260.0 600.0,260.0"/><text x="600" y="62" text-anchor="end" fill="#16a34a">5m_24_4 (n=56) — continuo: real, punteado: placebo</text><text x="600" y="76" text-anchor="end" fill="#999">gris: teórico 0,5/(0,5+o)</text></svg>