<svg xmlns="http://www.w3.org/2000/svg" width="640" height="220" font-family="sans-serif" font-size="11"><rect width="100%" height="100%" fill="#fff"/><text x="36" y="18">ES_RTH 5m_12_4 x=0,75</text><line x1="36" x2="604" y1="152.9" y2="152.9" stroke="#bbb" stroke-dasharray="3 3"/><polyline points="36.0,152.9 53.8,166.8 71.5,184.0 89.2,179.9 107.0,169.3 124.8,159.5 142.5,153.3 160.2,154.0 178.0,151.5 195.8,145.6 213.5,158.3 231.2,159.0 249.0,155.5 266.8,151.2 284.5,146.8 302.2,133.1 320.0,124.3 337.8,106.1 355.5,102.6 373.2,121.9 391.0,143.3 408.8,137.1 426.5,131.9 444.2,126.0 462.0,126.7 479.8,111.9 497.5,96.7 515.2,88.7 533.0,83.5 550.8,71.9 568.5,64.5 586.2,49.1 604.0,36.0" fill="none" stroke="#2563eb" stroke-width="1.5"/><text x="604" y="210" text-anchor="end">eventos → (t; máx 390.2, mín -103.8)</text></svg>